<?xml version="1.0" encoding="utf-8"?>
<!-- Generator: Adobe Illustrator 27.2.0, SVG Export Plug-In . SVG Version: 6.00 Build 0)  -->
<svg version="1.1" id="Layer_1" xmlns="http://www.w3.org/2000/svg" xmlns:xlink="http://www.w3.org/1999/xlink" x="0px" y="0px"
	 viewBox="75 65 700 150" style="enable-background:new 0 0 850.39 283.46;" xml:space="preserve">
<style type="text/css">
	.st0{fill:#249E6B;}
</style>
<g>
	<g>
		<path class="st0" d="M267.97,111.54h9.72v27.43h33.06v-27.43h9.81v63.57h-9.81v-27.88h-33.06v27.88h-9.72V111.54z"/>
		<path class="st0" d="M338.98,109.45c3.18,0,5.72,2.54,5.72,5.81c0,3.18-2.54,5.72-5.72,5.72c-3.27,0-5.81-2.54-5.81-5.72
			S335.71,109.45,338.98,109.45z M343.52,128.25v46.86h-9.17v-46.86H343.52z"/>
		<path class="st0" d="M374.33,126.79c7.9,0,14.08,4.63,17.07,12.9h0.36v-28.15h9.17v63.57h-8.81l-0.36-11.35h-0.36
			c-3,8.26-9.17,12.9-17.07,12.9c-12.62,0-20.98-9.9-20.98-24.88C353.35,136.69,361.7,126.79,374.33,126.79z M377.23,169.3
			c8.81,0,14.53-6.72,14.53-15.08v-4.99c0-8.36-5.72-15.08-14.53-15.08c-8.81,0-14.62,6.99-14.62,17.62
			C362.61,162.31,368.42,169.3,377.23,169.3z"/>
		<path class="st0" d="M431.7,126.59c7.9,0,14.08,4.63,17.07,12.9h0.36v-28.15h9.17v63.57h-8.81l-0.36-11.35h-0.36
			c-3,8.26-9.17,12.9-17.07,12.9c-12.62,0-20.98-9.9-20.98-24.88C410.72,136.49,419.08,126.59,431.7,126.59z M434.61,169.09
			c8.81,0,14.53-6.72,14.53-15.08v-4.99c0-8.36-5.72-15.08-14.53-15.08c-8.81,0-14.62,6.99-14.62,17.62
			C419.98,162.1,425.8,169.09,434.61,169.09z"/>
		<path class="st0" d="M467.87,151.5c0-15.44,9.45-24.7,23.52-24.7c13.08,0,22.71,9.54,22.71,22.98c0,1.18-0.09,2.36-0.18,3.54
			h-37.06c0.18,10.17,6.36,15.8,14.89,15.8c7.17,0,11.9-4.54,13.17-10.35h8.81c-1.45,11.08-10.9,17.8-21.98,17.8
			C477.58,176.57,467.87,168.21,467.87,151.5z M504.92,147.59c-0.45-8.08-5.45-13.35-13.71-13.35c-7.99,0-13.8,4.72-14.35,13.35
			H504.92z"/>
		<path class="st0" d="M523.25,128.25h8.81l0.45,11.44h0.55c2.54-8.26,8.54-12.9,16.8-12.9c9.9,0,16.98,6.72,16.98,17.44v30.88
			h-9.08v-28.52c0-7.72-3.91-11.9-11.81-11.9c-8.08,0-13.44,6.36-13.44,16.17v24.25h-9.26V128.25z"/>
		<path class="st0" d="M581.95,134.51h-6.45v-6.27h6.45v-3.45c0-9.99,6.45-14.62,15.89-14.62c2.27,0,4.72,0.18,7.27,0.73v7.08
			c-2.18-0.45-4.18-0.64-5.99-0.64c-5.27,0-8.26,2.27-8.26,8.36v2.54h14.26v6.27h-13.99v40.6h-9.17V134.51z"/>
		<path class="st0" d="M605.38,191.46v-7.08c2,0.45,3.63,0.64,5,0.64c3.72,0,5.09-1.73,5.09-6.36v-50.41h9.08v51.68
			c0,8.9-4.54,12.53-11.72,12.53C610.55,192.46,608.01,192.19,605.38,191.46z M620.09,109.45c3.18,0,5.72,2.54,5.72,5.81
			c0,3.18-2.54,5.72-5.72,5.72c-3.27,0-5.81-2.54-5.81-5.72S616.82,109.45,620.09,109.45z"/>
		<path class="st0" d="M634.06,151.5c0-15.08,11.42-24.7,24.55-24.7c13.13,0,24.64,9.63,24.64,24.7c0,15.44-11.51,25.07-24.64,25.07
			C645.48,176.57,634.06,166.94,634.06,151.5z M658.61,168.94c9.17,0,15.37-6.36,15.37-17.44c0-10.81-6.2-17.07-15.37-17.07
			c-9.08,0-15.29,6.27-15.29,17.07C643.32,162.58,649.53,168.94,658.61,168.94z"/>
		<path class="st0" d="M692.33,128.25h8.9l0.27,14.53h0.36c2.09-10.17,7.45-15.26,19.53-15.26v7.99
			c-6.63,0.27-11.26,1.73-14.44,4.63c-3.91,3.63-5.45,9.45-5.45,17.8v17.17h-9.17V128.25z"/>
		<path class="st0" d="M744.21,126.79c7.9,0,14.08,4.63,17.07,12.9h0.36v-28.15h9.17v63.57h-8.81l-0.36-11.35h-0.36
			c-3,8.26-9.17,12.9-17.07,12.9c-12.62,0-20.98-9.9-20.98-24.88C723.23,136.69,731.59,126.79,744.21,126.79z M747.12,169.3
			c8.81,0,14.53-6.72,14.53-15.08v-4.99c0-8.36-5.72-15.08-14.53-15.08c-8.81,0-14.62,6.99-14.62,17.62
			C732.49,162.31,738.31,169.3,747.12,169.3z"/>
	</g>
	<path class="st0" d="M166.62,209.89c26.07-6.48,43.59-23.04,51.04-48.84c7.45-25.94,1.24-49.25-17.24-68.84
		c-6.35-6.76-13.66-12.55-22.9-15.45c-0.55-0.14-1.1-0.55-1.66-0.69c-2.07-0.83-4.14-1.93-6.21-2.48c-2.62-0.69-5.24-0.97-7.86-1.24
		c-11.17-1.52-22.35-1.24-33.25,1.93c-28.56,8.42-48.84,36.14-48.97,66.63c0,5.79,0.69,11.45,2.07,17.11
		C91.02,195.82,128.96,219.41,166.62,209.89z M170.49,157.75c0.55,0.83,1.1,1.66,1.79,2.62c-2.35,0.55-4.55,0.97-6.62,1.66
		c-0.97,0.28-1.79,0.55-2.76,0.83c-0.83,0.14-1.79,0.28-2.76,0.28c-2.07,0-4.14-0.14-6.07-0.97c-2.48-1.1-4.97-0.97-7.59-0.55
		c-2.07,0.41-4.28,0.55-6.48,0.83c-2.9,0.41-5.66,0.28-8.28-1.38c-0.69-0.55-1.93-0.41-2.9-0.41c-1.1,0-2.07,0.14-3.17,0.14
		c-1.52,0.14-3.17,0.14-5.1,0.28c7.17-7.31,15.18-12.97,20.14-21.66c-1.24-0.55-1.93-1.24-2.35-2.48c-0.28-1.1-1.38-1.93-2.07-2.9
		c-1.1-1.52-1.24-2.21,0.14-3.17c1.79-1.24,3.04-2.48,2.9-4.97c0-0.97,1.38-2.07,2.21-3.31c2.76,2.62,5.24,5.1,7.73,7.59
		c1.93,1.93,3.59,4,5.52,5.93c5.66,5.79,11.31,11.59,16.97,17.38c1.93,1.93,4,3.86,4.69,6.76
		C173.66,161.47,172.97,157.88,170.49,157.75z M125.37,129.6c2.9-4.97,5.93-10.07,9.11-15.45c1.24,1.24,2.07,2.21,3.17,3.45
		c-3.59,4.55-7.45,8.69-11.59,12.55C125.79,130.02,125.65,129.74,125.37,129.6z M179.32,147.95c3.45-3.72,6.76-7.45,10.35-11.17
		c-0.55-1.1-0.97-2.07-1.52-2.9h-3.17c0.28-1.1,0.69-1.93,1.1-3.31c-3.04,1.24-5.79,2.35-8.55,3.31c-0.14-0.14-0.28-0.41-0.41-0.55
		c0.41-0.41,0.83-0.83,1.38-1.1c4.14-2.21,8.28-4.28,12.28-6.48c2.21-1.24,4.41-2.48,6.9-4c1.24,0.28,0.97,1.52,0.97,2.48
		c0,4.28,0,8.55,0,12.69c-0.14,0-0.41-0.14-0.55-0.14v-12.97c-1.52,6.9-0.55,13.93-0.28,21.25c0.14-0.83,0.28-1.24,0.41-1.66
		c0.14,0,0.28,0,0.28,0c0.14,0,0,4,0,4.41c-0.14,0.69-0.28,1.38-0.55,1.93c-0.55-0.14-0.97-0.14-1.52-0.14
		c-1.52-0.14-2.9-0.14-4.41,0.14c-0.28,0-2.35,0.55-3.17,0.83c-1.38,0.28-2.76,0.55-4.14,0.55
		C182.21,151.26,180.7,150.16,179.32,147.95z M103.44,95.39c11.45-10.9,24.69-18.07,40.28-20.83c3.59-0.69,7.31-0.55,11.31-0.14
		c-1.24,1.38-2.76,0.55-4.14,1.24c4.14,0.55,7.73,1.24,11.31,1.38c7.04,0.28,13.24,2.76,19.59,5.38c10.07,4,17.38,11.04,22.9,20.28
		c3.31,5.52,6.21,11.04,7.31,17.38c1.1,5.93,1.79,12,2.48,18.07c0.41,3.17,0.55,6.48,0.83,9.79c0.14,1.1,0.14,2.35,0,3.45
		c-0.83,0-1.52-0.28-2.21-0.55c-1.24-0.28-2.48-0.28-3.72,0c-1.1,0.28-2.21,0.83-3.45,0.97c-0.69,0-1.24-0.14-1.79-0.41
		c-0.28-0.14-1.24-0.28-1.38-0.41c-0.55-0.69-0.41-1.79-0.41-2.62c0-10.21,0-20.42,0-30.63c0-1.1,0-2.21,0-3.45
		c-2.9-0.55-4.97,0.55-6.9,1.66c-8.42,4.83-16.83,9.66-25.25,14.62c-1.52,0.83-2.9,1.66-4.69,2.62c-0.69-0.69-1.38-1.38-2.07-2.07
		c-1.38-1.52-2.48-3.31-3.86-4.69c-7.31-7.59-14.76-15.18-22.21-22.76c-0.69-0.69-1.66-1.52-2.48-1.93
		c-1.93-0.69-3.31,0.14-4.69,1.52c-6.35,6.48-12.83,12.97-19.18,19.45c-7.59,7.73-15.31,15.59-22.9,23.31
		c-0.97,0.97-2.07,1.93-3.59,3.31C82.88,128.09,88.13,110.01,103.44,95.39z"/>
</g>
</svg>
